<svg xmlns="http://www.w3.org/2000/svg" version="1.1" xmlns:xlink="http://www.w3.org/1999/xlink" xmlns:svgjs="http://svgjs.dev/svgjs" viewBox="0 0 800 800" opacity="1"><defs><linearGradient x1="50%" y1="0%" x2="50%" y2="100%" id="gggyrate-grad"><stop stop-color="hsl(162, 100%, 58%)" stop-opacity="1" offset="0%"></stop><stop stop-color="hsl(270, 73%, 53%)" stop-opacity="1" offset="100%"></stop></linearGradient></defs><g stroke-width="5" stroke="url(#gggyrate-grad)" fill="none"><path d="M377.13696121919975 70.25326280748226C391.28460961675887 62.0865853549804 408.71539038324113 62.0865853549804 422.86303878080025 70.25554911136038L674.136980197308 215.32838908717247C688.2846285948673 223.49506653967438 697.0000189781083 238.59153104663687 697.0000189781083 254.92717225551877V545.0728522071431C697.0000189781083 561.408493416025 688.2846285948673 576.5049579229874 674.136980197308 584.6739216793674L422.86303878080025 729.7467616551794C408.71539038324113 737.9134391076814 391.28460961675887 737.9134391076814 377.13696121919975 729.7444753513015L125.86301980269195 584.6716353754892C111.71537140513277 576.5049579229874 102.99998102189164 561.408493416025 102.99998102189164 545.0728522071431V254.92717225551877C102.99998102189164 238.59153104663687 111.71537140513277 223.49506653967438 125.86301980269195 215.32610278329446L377.13696121919975 70.25326280748226Z " transform="rotate(198, 400, 400)" opacity="0.21"></path><path d="M378.1761902546906 85.24174323229306C391.680763725088 77.44627839126858 408.319236274912 77.44627839126858 421.8238097453094 85.2439256132676L661.6762083701577 223.7225455901792C675.1807818405551 231.51801043120372 683.500018115467 245.92827200603153 683.500018115467 261.5213840690552V538.4786240228783C683.500018115467 554.071736085902 675.1807818405551 568.4819976607298 661.6762083701577 576.2796448827288L421.8238097453094 714.7582648596403C408.319236274912 722.5537297006648 391.680763725088 722.5537297006648 378.1761902546906 714.7560824786659L138.32379162984233 576.2774625017544C124.81921815944492 568.4819976607298 116.49998188453293 554.071736085902 116.49998188453293 538.4786240228783V261.5213840690552C116.49998188453293 245.92827200603153 124.81921815944492 231.51801043120372 138.32379162984233 223.72036320920472L378.1761902546906 85.24174323229306Z " transform="rotate(189, 400, 400)" opacity="0.87"></path><path d="M379.21541929018156 100.23022365710392C392.07691783341716 92.80597142755676 407.92308216658284 92.80597142755676 420.78458070981844 100.23230211517489L649.2154365430073 232.11670209318595C662.076935086243 239.5409543227331 670.0000172528258 253.26501296542625 670.0000172528258 268.1155958825916V531.8843958386137C670.0000172528258 546.7349787557791 662.076935086243 560.4590373984722 649.2154365430073 567.8853680860902L420.78458070981844 699.7697680641013C407.92308216658284 707.1940202936485 392.07691783341716 707.1940202936485 379.21541929018156 699.7676896060304L150.78456345699271 567.8832896280194C137.92306491375706 560.4590373984722 129.99998274717422 546.7349787557791 129.99998274717422 531.8843958386137V268.1155958825916C129.99998274717422 253.26501296542625 137.92306491375706 239.5409543227331 150.78456345699271 232.11462363511498L379.21541929018156 100.23022365710392Z " transform="rotate(180, 400, 400)" opacity="0.19"></path><path d="M380.25464832567246 115.21870408191472C392.4730719417463 108.16566446384493 407.5269280582537 108.16566446384493 419.7453516743276 115.22067861708217L636.754664715857 240.51085859619263C648.9730883319307 247.56389821426245 656.5000163901846 260.60175392482097 656.5000163901846 274.7098076961281V525.290167654349C656.5000163901846 539.3982214256562 648.9730883319307 552.4360771362146 636.754664715857 559.4910912894518L419.7453516743276 684.7812712685624C407.5269280582537 691.8343108866321 392.4730719417463 691.8343108866321 380.25464832567246 684.779296733395L163.24533528414304 559.4891167542845C151.0269116680692 552.4360771362146 143.4999836098155 539.3982214256562 143.4999836098155 525.290167654349V274.7098076961281C143.4999836098155 260.60175392482097 151.0269116680692 247.56389821426245 163.24533528414304 240.50888406102524L380.25464832567246 115.21870408191472Z " transform="rotate(171, 400, 400)" opacity="0.94"></path><path d="M381.29389261995243 130.20721502430365C392.8692413088645 123.52538801771124 407.1307892087136 123.52538801771124 418.7061378976257 130.20908563656758L624.2939081474956 248.9050456167775C635.8692568364078 255.5868726233699 643.0000307863322 267.93852540179375 643.0000307863322 281.3040500272426V518.6959699876625C643.0000307863322 532.0614946131113 635.8692568364078 544.4131473915352 624.2939081474956 551.0968450103915L418.7061378976257 669.7928049906013C407.1307892087136 676.4746319971938 392.8692413088645 676.4746319971938 381.29389261995243 669.7909343783375L175.70612237008248 551.0949743981275C164.1307736811704 544.4131473915352 156.99999973124585 532.0614946131113 156.99999973124585 518.6959699876625V281.3040500272426C156.99999973124585 267.93852540179375 164.1307736811704 255.5868726233699 175.70612237008248 248.90317500451368L381.29389261995243 130.20721502430365Z " transform="rotate(162, 400, 400)" opacity="0.63"></path><path d="M382.33310639665433 145.1956954491145C393.2653801584046 138.88508105399941 406.7346198415954 138.88508105399941 417.66689360334567 145.19746213847486L611.8331210615563 257.29920211978424C622.7653948233065 263.6098165148993 629.500014664902 275.2752663611885 629.500014664902 287.89826184077907V512.1017418033979C629.500014664902 524.7247372829884 622.7653948233065 536.3901871292776 611.8331210615563 542.702568213753L417.66689360334567 654.8043081950624C406.7346198415954 661.1149225901775 393.2653801584046 661.1149225901775 382.33310639665433 654.802541505702L188.1668789384438 542.7008015243927C177.2346051766935 536.3901871292776 170.49998533509807 524.7247372829884 170.49998533509807 512.1017418033979V287.89826184077907C170.49998533509807 275.2752663611885 177.2346051766935 263.6098165148993 188.1668789384438 257.29743543042395L382.33310639665433 145.1956954491145Z " transform="rotate(153, 400, 400)" opacity="0.92"></path><path d="M383.37233543214523 160.18416061513625C393.6615342667337 154.24475883149853 406.3384657332663 154.24475883149853 416.62766456785477 160.18582338159302L599.3723492344059 265.69334336400186C609.6615480689943 271.63274514763964 616.0000138022606 282.6119920617941 616.0000138022606 294.49245839552646V505.50749836034413C616.0000138022606 517.3879646940763 609.6615480689943 528.367211608231 599.3723492344059 534.3082761583254L416.62766456785477 639.8157961407342C406.3384657332663 645.7551979243719 393.6615342667337 645.7551979243719 383.37233543214523 639.8141333742774L200.62765076559413 534.3066133918686C190.33845193100564 528.367211608231 183.99998619773936 517.3879646940763 183.99998619773936 505.50749836034413V294.49245839552646C183.99998619773936 282.6119920617941 190.33845193100564 271.63274514763964 200.62765076559413 265.69168059754514L383.37233543214523 160.18416061513625Z " transform="rotate(144, 400, 400)" opacity="0.87"></path><path d="M384.41156446763614 175.17265629873611C394.05768837506287 169.60446712657577 405.94231162493713 169.60446712657577 415.58843553236386 175.17421514228937L586.9115774072554 274.08751512579767C596.5577013146822 279.65570429795804 602.5000129396193 289.94874827997785 602.5000129396193 301.0866854678519V498.9132854348685C602.5000129396193 510.05122262274244 596.5577013146822 520.3442666047624 586.9115774072554 525.9140146204759L415.58843553236386 624.8273146039842C405.94231162493713 630.3955037761446 394.05768837506287 630.3955037761446 384.41156446763614 624.8257557604311L213.0884225927445 525.9124557769228C203.44229868531778 520.3442666047624 197.49998706038065 510.05122262274244 197.49998706038065 498.9132854348685V301.0866854678519C197.49998706038065 289.94874827997785 203.44229868531778 279.65570429795804 213.0884225927445 274.08595628224447L384.41156446763614 175.17265629873611Z " transform="rotate(135, 400, 400)" opacity="0.91"></path><path d="M385.4507935031271 190.1611672411251C394.453842483392 184.96419068044207 405.546157516608 184.96419068044207 414.5492064968729 190.16262216177478L574.4508055801051 282.48170214638253C583.45385456037 287.6786787070655 589.000012076978 297.28551975695075 589.000012076978 307.6809277989665V492.31908776818193C589.000012076978 502.7144958101976 583.45385456037 512.3213368600829 574.4508055801051 517.5197683414156L414.5492064968729 609.8388483260233C405.546157516608 615.0358248867063 394.453842483392 615.0358248867063 385.4507935031271 609.8373934053736L225.5491944198949 517.5183134207659C216.54614543962992 512.3213368600829 210.99998792302193 502.7144958101976 210.99998792302193 492.31908776818193V307.6809277989665C210.99998792302193 297.28551975695075 216.54614543962992 287.6786787070655 225.5491944198949 282.48024722573285L385.4507935031271 190.1611672411251Z " transform="rotate(126, 400, 400)" opacity="0.68"></path><path d="M386.490022538618 205.1496476659359C394.84999659172115 200.32388371673025 405.15000340827885 200.32388371673025 413.509977461382 205.15099866368206L561.9900337529548 290.8758586493892C570.3500078060579 295.7016225985949 575.5000112143368 304.6222607163454 575.5000112143368 314.2751396125029V485.72485958391724C575.5000112143368 495.37773848007464 570.3500078060579 504.29837659782527 561.9900337529548 509.1254915447771L413.509977461382 594.8503515304842C405.15000340827885 599.6761154796899 394.84999659172115 599.6761154796899 386.490022538618 594.849000532738L238.00996624704527 509.12414054703095C229.64999219394207 504.29837659782527 224.49998878566322 495.37773848007464 224.49998878566322 485.72485958391724V314.2751396125029C224.49998878566322 304.6222607163454 229.64999219394207 295.7016225985949 238.00996624704527 290.8745076516431L386.490022538618 205.1496476659359Z " transform="rotate(117, 400, 400)" opacity="0.45"></path><path d="M387.5292515741089 220.1381280907467C395.2461507000503 215.68357675301843 404.7538492999497 215.68357675301843 412.4707484258911 220.13937516558934L549.5292619258043 299.27001515239596C557.2461610517457 303.72456649012423 562.0000103516954 311.9590016757401 562.0000103516954 320.8693514260394V479.13063139965266C562.0000103516954 488.0409811499519 557.2461610517457 496.2754163355677 549.5292619258043 500.73121474813854L412.4707484258911 579.8618547349452C404.7538492999497 584.3164060726735 395.2461507000503 584.3164060726735 387.5292515741089 579.8606076601027L250.4707380741956 500.72996767329596C242.7538389482542 496.2754163355677 237.9999896483045 488.0409811499519 237.9999896483045 479.13063139965266V320.8693514260394C237.9999896483045 311.9590016757401 242.7538389482542 303.72456649012423 250.4707380741956 299.2687680775534L387.5292515741089 220.1381280907467Z " transform="rotate(108, 400, 400)" opacity="0.24"></path><path d="M388.5684806095999 235.12662377434663C395.64230480837944 231.04328504809567 404.35769519162056 231.04328504809567 411.4315193904001 235.12776692628563L537.068490098654 307.6641869141917C544.1423142974336 311.74752564044263 548.5000094890542 319.2957578939239 548.5000094890542 327.4635784983649V472.536418474177C548.5000094890542 480.70423907861795 544.1423142974336 488.25247133209916 537.068490098654 492.33695321028915L411.4315193904001 564.8733731981952C404.35769519162056 568.9567119244462 395.64230480837944 568.9567119244462 388.5684806095999 564.8722300462562L262.931509901346 492.33581005835003C255.85768570256636 488.25247133209916 251.49999051094585 480.70423907861795 251.49999051094585 472.536418474177V327.4635784983649C251.49999051094585 319.2957578939239 255.85768570256636 311.74752564044263 262.931509901346 307.6630437622527L388.5684806095999 235.12662377434663Z " transform="rotate(99, 400, 400)" opacity="0.87"></path><path d="M389.6077096450908 250.11510419915743C396.0384589167086 246.40297808438385 403.9615410832914 246.40297808438385 410.3922903549092 250.1161434281929L524.6077182715037 316.05834341719844C531.0384675431214 319.770469531972 535.0000086264129 326.63249885331857 535.0000086264129 334.0577903119013V465.94219028991233C535.0000086264129 473.36748174849504 531.0384675431214 480.2295110698416 524.6077182715037 483.9426764136506L410.3922903549092 549.8848764026561C403.9615410832914 553.5970025174297 396.0384589167086 553.5970025174297 389.6077096450908 549.8838371736207L275.39228172849636 483.94163718461516C268.9615324568785 480.2295110698416 264.99999137358714 473.36748174849504 264.99999137358714 465.94219028991233V334.0577903119013C264.99999137358714 326.63249885331857 268.9615324568785 319.770469531972 275.39228172849636 316.05730418816296L389.6077096450908 250.11510419915743Z " transform="rotate(90, 400, 400)" opacity="0.08"></path><path d="M390.6469386805817 265.1035998827573C396.4346130250377 261.7626863794611 403.5653869749623 261.7626863794611 409.3530613194183 265.10453518888926L512.1469464443533 324.45251517899425C517.9346207888093 327.7934286822904 521.5000077637716 333.96925507150235 521.5000077637716 340.6520173842268V459.3479773644367C521.5000077637716 466.03073967716114 517.9346207888093 472.20656606637306 512.1469464443533 475.5484148758012L409.3530613194183 534.8963948659061C403.5653869749623 538.2373083692023 396.4346130250377 538.2373083692023 390.6469386805817 534.8954595597743L287.85305355564674 475.54747956966924C282.06537921119065 472.20656606637306 278.4999922362284 466.03073967716114 278.4999922362284 459.3479773644367V340.6520173842268C278.4999922362284 333.96925507150235 282.06537921119065 327.7934286822904 287.85305355564674 324.4515798728623L390.6469386805817 265.1035998827573Z " transform="rotate(81, 400, 400)" opacity="0.61"></path><path d="M391.68616771607265 280.0920955663572C396.83076713336686 277.1223946745383 403.16923286663314 277.1223946745383 408.31383228392735 280.0929269495856L499.68617461720294 332.84668694079C504.83077403449715 335.8163878326089 508.0000069011303 341.3060112896861 508.0000069011303 347.2462444565523V452.7537644389611C508.0000069011303 458.69399760582724 504.83077403449715 464.18362106290454 499.68617461720294 467.15415333795175L408.31383228392735 519.9079133291561C403.16923286663314 522.877614220975 396.83076713336686 522.877614220975 391.68616771607265 519.9070819459278L300.31382538279706 467.15332195472337C295.16922596550285 464.18362106290454 291.9999930988697 458.69399760582724 291.9999930988697 452.7537644389611V347.2462444565523C291.9999930988697 341.3060112896861 295.16922596550285 335.8163878326089 300.31382538279706 332.8458555575616L391.68616771607265 280.0920955663572Z " transform="rotate(72, 400, 400)" opacity="0.97"></path><path d="M392.72539675156355 295.08058362056255C397.226921241696 292.482095340221 402.773078758304 292.482095340221 407.27460324843645 295.0813110808874L487.22540279005256 341.24085107319127C491.726927280185 343.83933935353275 494.500006038489 348.6427598784754 494.500006038489 353.8404638994832V446.15954388409097C494.500006038489 451.3572479050988 491.726927280185 456.1606684300414 487.22540279005256 458.7598841707078L407.27460324843645 504.9194241630116C402.773078758304 507.51791244335317 397.226921241696 507.51791244335317 392.72539675156355 504.9186967026868L312.77459720994744 458.75915671038297C308.273072719815 456.1606684300414 305.499993961511 451.3572479050988 305.499993961511 446.15954388409097V353.8404638994832C305.499993961511 348.6427598784754 308.273072719815 343.83933935353275 312.77459720994744 341.2401236128664L392.72539675156355 295.08058362056255Z " transform="rotate(63, 400, 400)" opacity="0.46"></path><path d="M393.76462578705446 310.06906404537335C397.62307535002515 307.8417883765092 402.37692464997485 307.8417883765092 406.23537421294554 310.0696875827947L474.7646309629022 349.63500757619795C478.62308052587287 351.86228324506214 481.0000051758477 355.9795008378701 481.0000051758477 360.43467571301966V439.56531569982633C481.0000051758477 444.02049057497595 478.62308052587287 448.13770816778384 474.7646309629022 450.36560737406927L406.23537421294554 489.9309273674726C402.37692464997485 492.1582030363368 397.62307535002515 492.1582030363368 393.76462578705446 489.93030383005134L325.2353690370978 450.364983836648C321.37691947412713 448.13770816778384 318.9999948241523 444.02049057497595 318.9999948241523 439.56531569982633V360.43467571301966C318.9999948241523 355.9795008378701 321.37691947412713 351.86228324506214 325.2353690370978 349.6343840387767L393.76462578705446 310.06906404537335Z " transform="rotate(54, 400, 400)" opacity="0.17"></path><path d="M394.80385482254536 325.0575597289733C398.0192294583543 323.2014966715865 401.9807705416457 323.2014966715865 405.1961451774546 325.058079343491L462.30385913575185 358.02917933799375C465.5192337715607 359.88524239538054 467.50000431320643 363.3162570560538 467.50000431320643 367.02890278534517V432.9711027743507C467.50000431320643 436.68374850364205 465.5192337715607 440.1147631643153 462.30385913575185 441.9713458362198L405.1961451774546 474.9424458307226C401.9807705416457 476.7985088881094 398.0192294583543 476.7985088881094 394.80385482254536 474.9419262162049L337.69614086424815 441.9708262217021C334.4807662284393 440.1147631643153 332.49999568679357 436.68374850364205 332.49999568679357 432.9711027743507V367.02890278534517C332.49999568679357 363.3162570560538 334.4807662284393 359.88524239538054 337.69614086424815 358.02865972347604L394.80385482254536 325.0575597289733Z " transform="rotate(45, 400, 400)" opacity="0.20"></path><path d="M395.8430838580363 340.04605541257314C398.41538356668343 338.5612049666637 401.58461643331657 338.5612049666637 404.1569161419637 340.04647110418733L449.84308730860147 366.42335109978956C452.4153870172486 367.90820154569894 454.00000345056515 370.6530132742376 454.00000345056515 373.6231298576707V426.37688984887507C454.00000345056515 429.34700643230815 452.4153870172486 432.0918181608468 449.84308730860147 433.57708429837044L404.1569161419637 459.9539642939726C401.58461643331657 461.43881473988205 398.41538356668343 461.43881473988205 395.8430838580363 459.9535486023584L350.15691269139853 433.57666860675624C347.5846129827514 432.0918181608468 345.99999654943485 429.34700643230815 345.99999654943485 426.37688984887507V373.6231298576707C345.99999654943485 370.6530132742376 347.5846129827514 367.90820154569894 350.15691269139853 366.42293540817536L395.8430838580363 340.04605541257314Z " transform="rotate(36, 400, 400)" opacity="0.46"></path><path d="M396.8823128935272 355.0345434667785C398.8115376750126 353.9209056323464 401.1884623249874 353.9209056323464 403.1176871064728 355.0348552354891L437.3823154814511 374.8175152321908C439.31154026293643 375.93115306662287 440.50000258792386 377.98976186302684 440.50000258792386 380.21734930060165V419.78266929400496C440.50000258792386 422.0102567315798 439.31154026293643 424.0688655279837 437.3823154814511 425.1828151311264L403.1176871064728 444.9654751278281C401.1884623249874 446.0791129622602 398.8115376750126 446.0791129622602 396.8823128935272 444.96516335911747L362.6176845185489 425.1825033624158C360.68845973706357 424.0688655279837 359.49999741207614 422.0102567315798 359.49999741207614 419.78266929400496V380.21734930060165C359.49999741207614 377.98976186302684 360.68845973706357 375.93115306662287 362.6176845185489 374.81720346348015L396.8823128935272 355.0345434667785Z " transform="rotate(27, 400, 400)" opacity="0.78"></path><path d="M397.92154192901813 370.02303152098386C399.2076917833417 369.2806062980291 400.7923082166583 369.2806062980291 402.07845807098187 370.0232393667909L424.9215436543007 383.21167936459204C426.2076935086243 383.95410458754674 427.0000017252826 385.32651045181603 427.0000017252826 386.8115687435326V413.1884487391348C427.0000017252826 414.67350703085134 426.2076935086243 416.04591289512064 424.9215436543007 416.7885459638825L402.07845807098187 429.97698596168357C400.7923082166583 430.71941118463826 399.2076917833417 430.71941118463826 397.92154192901813 429.97677811587647L375.0784563456993 416.7883381180754C373.7923064913757 416.04591289512064 372.9999982747174 414.67350703085134 372.9999982747174 413.1884487391348V386.8115687435326C372.9999982747174 385.32651045181603 373.7923064913757 383.95410458754674 375.0784563456993 383.21147151878495L397.92154192901813 370.02303152098386Z " transform="rotate(18, 400, 400)" opacity="0.23"></path><path d="M398.9607709645091 385.0115119457946C399.60384589167086 384.6402993343173 400.39615410832914 384.6402993343173 401.0392290354909 385.0116158686982L412.4607718271504 391.6058358675987C413.10384675431214 391.97704847907613 413.5000008626413 392.66325141121075 413.5000008626413 393.405780557069V406.59422055487016C413.5000008626413 407.33674970072843 413.10384675431214 408.02295263286305 412.4607718271504 408.394269167244L401.0392290354909 414.9884891661445C400.39615410832914 415.35970177762186 399.60384589167086 415.35970177762186 398.9607709645091 414.988385243241L387.5392281728496 408.3941652443404C386.89615324568786 408.02295263286305 386.4999991373587 407.33674970072843 386.4999991373587 406.59422055487016V393.405780557069C386.4999991373587 392.66325141121075 386.89615324568786 391.97704847907613 387.5392281728496 391.6057319446952L398.9607709645091 385.0115119457946Z " transform="rotate(9, 400, 400)" opacity="0.41"></path></g></svg>